<?xml version="1.0" standalone="no"?>
<!DOCTYPE svg PUBLIC "-//W3C//DTD SVG 1.1//EN" "http://www.w3.org/Graphics/SVG/1.1/DTD/svg11.dtd" >
<svg xmlns="http://www.w3.org/2000/svg" xmlns:xlink="http://www.w3.org/1999/xlink" version="1.1">
<metadata>
Created by FontForge 20170731 at Wed Mar 17 16:51:15 2004
 By ,,,
(C)1992 The Font Company Inc., ALL Rights Reserved
</metadata>
<defs>
<font id="Futura-Itl" horiz-adv-x="500" >
  <font-face 
    font-family="Futura"
    font-weight="400"
    font-style="italic"
    font-stretch="normal"
    units-per-em="1000"
    panose-1="2 0 5 3 7 0 0 9 0 4"
    ascent="800"
    descent="-200"
    x-height="403"
    cap-height="666"
    bbox="-141 -268 1032 935"
    underline-thickness="20"
    underline-position="-160"
    slope="-12"
    unicode-range="U+0020-FB02"
  />
<missing-glyph horiz-adv-x="0" 
 />
    <glyph glyph-name="fi" unicode="fi" horiz-adv-x="259" 
d="M291 400l-50 -403h-70l50 403h70zM133 345l-42 -345h-70l42 345h-54l7 63h55l24 196q8 69 37 101t82 32q28 0 61 -16l-8 -64q-23 16 -44 16q-28 0 -41 -19.5t-19 -70.5l-22 -175h81l-8 -63h-81z" />
    <glyph glyph-name="fl" unicode="fl" horiz-adv-x="289" 
d="M358 729l-90 -729h-70l90 729h70zM133 345l-42 -345h-70l42 345h-54l7 63h55l24 196q8 69 37 101t82 32q28 0 61 -16l-8 -64q-23 16 -44 16q-28 0 -41 -19.5t-19 -70.5l-22 -175h81l-8 -63h-81z" />
    <glyph glyph-name=".notdef" horiz-adv-x="0" 
 />
    <glyph glyph-name=".null" horiz-adv-x="0" 
 />
    <glyph glyph-name="nonmarkingreturn" horiz-adv-x="333" 
 />
    <glyph glyph-name="space" unicode=" " horiz-adv-x="200" 
 />
    <glyph glyph-name="exclam" unicode="!" horiz-adv-x="267" 
d="M205 672l-64 -521h-73l63 521h74zM139 42v-2q0 -21 -13.5 -34.5t-34.5 -13.5q-20 0 -33 13.5t-13 34.5q0 20 13.5 33.5t33.5 13.5q19 0 32.5 -13t14.5 -32z" />
    <glyph glyph-name="quotedbl" unicode="&#x22;" horiz-adv-x="337" 
d="M247 394h-35l-11 272h57zM124 394h-35l-11 272h57z" />
    <glyph glyph-name="numbersign" unicode="#" horiz-adv-x="579" 
d="M380 413h-147l-23 -147h148zM509 266l-2 -43h-112l-34 -223h-44l34 223h-147l-35 -223h-43l34 223h-113l1 43h118l23 147h-113l1 43h118l32 210h44l-32 -210h148l32 210h44l-32 -210h106l-2 -43h-111l-22 -147h107z" />
    <glyph glyph-name="dollar" unicode="$" horiz-adv-x="546" 
d="M287 294l-29 -239q49 10 76 43t27 84q0 34 -16 58.5t-58 53.5zM248 399l27 213q-96 -24 -96 -107q0 -59 69 -106zM198 -8q-65 10 -110 51q-31 28 -57 86l59 34q39 -99 116 -109l33 269q-40 24 -66 45q-65 51 -65 135q0 74 46.5 121t128.5 54l10 82h51l-10 -86
q45 -9 74.5 -32t56.5 -70l-51 -42q-23 39 -41 55t-47 24l-30 -239l13 -8q43 -26 65.5 -46.5t37.5 -46.5q21 -39 21 -89q0 -62 -32 -110t-87 -67q-31 -10 -64 -13l-12 -97h-51z" />
    <glyph glyph-name="percent" unicode="%" horiz-adv-x="733" 
d="M625 194q-10 93 -67 93q-36 0 -61.5 -44t-25.5 -105q0 -45 18 -72.5t48 -27.5q35 0 62 44t27 100q0 2 -0.5 6t-0.5 6zM249 530q0 44 -18 70.5t-48 26.5q-36 0 -62 -44t-26 -105q0 -44 18.5 -71.5t48.5 -27.5q37 0 62 43.5t25 107.5zM675 195v-7q0 -85 -39 -140.5
t-99 -55.5q-53 0 -84.5 41t-31.5 109q0 82 40 137.5t99 55.5q48 0 80.5 -39.5t34.5 -100.5zM98 15l490 661l35 -26l-490 -659zM299 535v-7q0 -86 -39 -141.5t-99 -55.5q-53 0 -84.5 41.5t-31.5 110.5q0 81 40 136.5t99 55.5q49 0 81.5 -39.5t33.5 -100.5z" />
    <glyph glyph-name="ampersand" unicode="&#x26;" horiz-adv-x="600" 
d="M246 338q-81 -58 -109 -92.5t-28 -73.5q0 -46 32 -79t77 -33q31 0 61.5 16.5t88.5 63.5zM273 436q54 35 76.5 59.5t22.5 50.5q0 29 -18.5 47.5t-46.5 18.5q-31 0 -51.5 -23t-20.5 -56t38 -97zM465 127l80 -127h-89l-49 80l-16 -12q-58 -45 -95 -61t-80 -16
q-74 0 -128 53.5t-54 128.5q0 49 25 88.5t89 89.5q24 20 61 46q-48 83 -48 139q0 61 40 100.5t103 39.5q60 0 99.5 -38t39.5 -96q0 -45 -31 -83.5t-102 -81.5l115 -189l93 79l48 -57z" />
    <glyph glyph-name="quotesingle" unicode="'" horiz-adv-x="168" 
d="M101 394h-35l-11 272h58z" />
    <glyph glyph-name="parenleft" unicode="(" horiz-adv-x="297" 
d="M108 -190q-26 81 -38 167q-12 87 -12 167q0 206 81 405q25 63 72 143l58 -31q-140 -261 -140 -523q0 -149 41 -304z" />
    <glyph glyph-name="parenright" unicode=")" horiz-adv-x="298" 
d="M158 692q27 -81 37 -167q12 -88 12 -167q0 -210 -81 -404q-25 -62 -71 -144l-58 32q139 258 139 521q0 153 -41 306z" />
    <glyph glyph-name="asterisk" unicode="*" horiz-adv-x="469" 
d="M227 559l10 123l68 -9l-20 -122l121 29l13 -68l-122 -18l64 -106l-61 -34l-55 111l-81 -94l-50 47l88 87l-115 48l30 62z" />
    <glyph glyph-name="plus" unicode="+" 
d="M11 365h215v201h47v-201h216v-47h-215v-201h-47v201h-216v47z" />
    <glyph glyph-name="comma" unicode="," horiz-adv-x="240" 
d="M127 90l-137 -225l-46 25l124 233z" />
    <glyph glyph-name="hyphen" unicode="-" horiz-adv-x="180" 
d="M163 240l-8 -62h-180l8 62h180z" />
    <glyph glyph-name="period" unicode="." horiz-adv-x="240" 
d="M125 43v-3q0 -20 -14 -34t-34 -14q-19 0 -32.5 13.5t-13.5 33.5t13 33.5t33 13.5q19 0 33 -12t15 -31z" />
    <glyph glyph-name="slash" unicode="/" horiz-adv-x="389" 
d="M-43 -159l370 846l56 -26l-370 -846z" />
    <glyph glyph-name="zero" unicode="0" horiz-adv-x="546" 
d="M431 389q0 94 -39.5 157.5t-98.5 63.5q-76 0 -134 -98.5t-58 -228.5q0 -98 39.5 -162.5t99.5 -64.5q79 0 135 98t56 235zM504 387q0 -168 -76 -283t-187 -115q-94 0 -153.5 83t-59.5 215q0 162 77.5 276.5t186.5 114.5q92 0 152 -82.5t60 -208.5z" />
    <glyph glyph-name="one" unicode="1" horiz-adv-x="546" 
d="M353 666l-82 -666h-73l73 598h-115l38 68h159z" />
    <glyph glyph-name="two" unicode="2" horiz-adv-x="546" 
d="M433 68l-9 -68h-422l269 285q65 68 85.5 96.5t29.5 60.5q6 20 6 42q0 56 -34 91t-89 35q-125 0 -137 -156h-70q4 60 17 96.5t42 66.5q59 61 150 61q86 0 140 -53.5t54 -138.5q0 -81 -60 -154q-30 -36 -64 -72l-184 -192h276z" />
    <glyph glyph-name="three" unicode="3" horiz-adv-x="546" 
d="M29 168h68q3 -55 34 -83.5t87 -28.5q60 0 98.5 39.5t38.5 100.5q0 113 -131 120l8 64q9 -1 24 -1q52 0 83 34t31 91q0 48 -29 77t-78 29q-94 0 -106 -108h-67q6 48 16.5 75t33.5 50q53 51 129 51q79 0 126.5 -48t47.5 -126q0 -75 -55 -125q-21 -19 -61 -33
q102 -45 102 -154q0 -89 -59.5 -146t-151.5 -57q-86 0 -136.5 47.5t-52.5 131.5z" />
    <glyph glyph-name="four" unicode="4" horiz-adv-x="546" 
d="M313 188l38 308l-237 -308h199zM378 123l-15 -123h-73l15 123h-317l463 590l-65 -525h75l-8 -65h-75z" />
    <glyph glyph-name="five" unicode="5" horiz-adv-x="546" 
d="M472 666l-8 -68h-210l-57 -158q31 7 57 7q90 0 145.5 -59t55.5 -156q0 -106 -69 -174.5t-176 -68.5q-75 0 -124 34.5t-82 110.5l60 29q25 -57 60 -82t88 -25q74 0 121.5 50t47.5 127q0 69 -41 110.5t-110 41.5q-30 0 -54.5 -6.5t-79.5 -29.5l109 317h267z" />
    <glyph glyph-name="six" unicode="6" horiz-adv-x="546" 
d="M99 205q0 -64 41.5 -106.5t104.5 -42.5q68 0 116.5 51.5t48.5 124.5q0 66 -40.5 108t-102.5 42q-72 0 -120 -50.5t-48 -126.5zM203 428q45 17 88 17q83 0 137 -58.5t54 -147.5q0 -105 -69.5 -177.5t-170.5 -72.5q-93 0 -155 62.5t-62 156.5q0 52 23 104.5t76 121.5
l200 258l54 -43z" />
    <glyph glyph-name="seven" unicode="7" horiz-adv-x="546" 
d="M547 666l-450 -681l-60 38l380 575h-342l8 68h464z" />
    <glyph glyph-name="eight" unicode="8" horiz-adv-x="546" 
d="M380 192q0 54 -35 88.5t-89 34.5q-59 0 -98.5 -39t-39.5 -97q0 -54 35.5 -88.5t90.5 -34.5q58 0 97 39t39 97zM396 512q-3 43 -33.5 70.5t-74.5 27.5q-49 0 -83 -33.5t-34 -82.5q0 -45 31 -76.5t76 -31.5q50 0 84.5 34.5t34.5 84.5v7h-1zM356 349q51 -29 74 -67t23 -94
q0 -86 -59 -142.5t-149 -56.5q-87 0 -144 52t-57 132q0 83 61 139q29 27 78 45q-85 55 -85 143q0 77 55 127.5t138 50.5q79 0 129 -48t50 -123q0 -64 -39 -109q-25 -28 -75 -49z" />
    <glyph glyph-name="nine" unicode="9" horiz-adv-x="546" 
d="M425 461q-2 65 -42.5 107t-100.5 42q-69 0 -118 -54t-49 -130q0 -63 40 -104t102 -41q71 0 119.5 50t48.5 123v7zM321 237q-42 -18 -81 -18q-88 0 -143 57t-55 148q0 104 71 179t171 75q92 0 153.5 -63t61.5 -157q0 -54 -22.5 -104.5t-76.5 -121.5l-198 -256l-55 42z" />
    <glyph glyph-name="colon" unicode=":" horiz-adv-x="240" 
d="M166 379v-3q0 -21 -13.5 -35t-33.5 -14t-33.5 14t-13.5 34t13.5 33.5t33.5 13.5q18 0 32 -12.5t15 -30.5zM125 43v-3q0 -20 -14 -34t-34 -14q-19 0 -32.5 13.5t-13.5 33.5t13 33.5t33 13.5q19 0 33 -12t15 -31z" />
    <glyph glyph-name="semicolon" unicode=";" horiz-adv-x="240" 
d="M127 90l-137 -225l-46 25l124 233zM159 379v-3q0 -21 -14 -35t-34 -14q-19 0 -32.5 14t-13.5 34t13 33.5t33 13.5q19 0 32.5 -12.5t15.5 -30.5z" />
    <glyph glyph-name="less" unicode="&#x3c;" 
d="M489 571v-50l-419 -181l419 -185v-50l-478 209v51z" />
    <glyph glyph-name="equal" unicode="=" 
d="M11 294h478v-47h-478v47zM11 437h478v-47h-478v47z" />
    <glyph glyph-name="greater" unicode="&#x3e;" 
d="M11 104v51l418 179l-418 186v51l478 -210v-51z" />
    <glyph glyph-name="question" unicode="?" horiz-adv-x="452" 
d="M297 283h71q-5 -69 -43 -106.5t-102 -37.5q-62 0 -103.5 39.5t-41.5 98.5q0 61 43 102q34 31 109 58q58 21 80.5 42t22.5 56q0 37 -25.5 61t-64.5 24q-46 0 -68 -29.5t-23 -91.5h-68q1 58 11.5 89.5t37.5 54.5q45 39 111 39q72 0 116.5 -41t44.5 -107q0 -55 -34 -95
q-29 -33 -99 -57q-71 -26 -96 -48.5t-25 -59.5q0 -31 20.5 -51t52.5 -20q68 0 73 80zM236 39q0 -20 -13 -33.5t-33 -13.5t-34 13.5t-14 32.5q0 21 14 34.5t34 13.5t33 -13.5t13 -33.5z" />
    <glyph glyph-name="at" unicode="@" horiz-adv-x="714" 
d="M332 182q53 3 84.5 51t31.5 126q0 49 -25 76t-70 27q-56 0 -94 -45.5t-38 -112.5q0 -55 29 -88.5t76 -33.5h6zM599 132h45q-33 -41 -51.5 -59.5t-44.5 -35.5q-72 -47 -176 -47q-151 0 -251.5 97t-100.5 244t100 246.5t248 99.5q137 0 228 -82t91 -205q0 -85 -42 -149.5
t-117 -93.5q-34 -13 -59 -13q-22 0 -34.5 12.5t-12.5 34.5q0 9 1 14q-42 -57 -109 -57q-64 0 -103.5 44.5t-39.5 117.5q0 90 51 149t128 59q86 0 118 -76l13 63h44l-50 -265q-6 -28 -6 -37q0 -21 21 -21q34 0 85 41q37 28 58 74t21 97q0 111 -81 184.5t-204 73.5
q-130 0 -218.5 -89t-88.5 -220q0 -130 90 -220t221 -90q75 0 137 34q42 24 89 75z" />
    <glyph glyph-name="A" unicode="A" horiz-adv-x="616" 
d="M196 254h215l-76 272zM161 186l-97 -186h-80l370 707l206 -707h-75l-53 186h-271z" />
    <glyph glyph-name="B" unicode="B" horiz-adv-x="525" 
d="M154 306l-29 -238h106q49 0 74 6.5t42 23.5q38 38 38 96q0 62 -44 90q-20 13 -42 17.5t-71 4.5h-74zM190 598l-28 -227h51q52 0 74 6.5t41 27.5q36 38 36 95q0 52 -29 75t-93 23h-52zM125 666h119q100 0 141 -38q51 -48 51 -127q0 -106 -97 -155q49 -13 75 -37
q45 -43 45 -119q0 -58 -30 -105.5t-78 -67.5q-42 -17 -125 -17h-183z" />
    <glyph glyph-name="C" unicode="C" horiz-adv-x="643" 
d="M614 595l-10 -85q-38 47 -95.5 73.5t-123.5 26.5q-115 0 -190 -83.5t-75 -212.5q0 -118 69 -188t186 -70q108 0 186 68l-11 -90q-93 -47 -186 -47q-141 0 -230 91.5t-89 237.5q0 157 96 260.5t242 103.5q115 0 203 -63q2 -2 11.5 -9t16.5 -13z" />
    <glyph glyph-name="D" unicode="D" horiz-adv-x="635" 
d="M190 598l-65 -530h83q84 0 130.5 15t84.5 53q38 41 60 101t22 123q0 89 -40 151t-108 78q-33 9 -94 9h-73zM125 666h134q87 0 135.5 -13.5t86.5 -47.5q99 -90 99 -247q0 -131 -69 -228t-178 -120q-45 -10 -135 -10h-154z" />
    <glyph glyph-name="E" unicode="E" horiz-adv-x="466" 
d="M452 666l-9 -68h-253l-25 -203h253l-8 -68h-253l-32 -259h253l-8 -68h-326l81 666h327z" />
    <glyph glyph-name="F" unicode="F" horiz-adv-x="431" 
d="M429 666l-8 -68h-230l-26 -202h231l-9 -68h-230l-41 -328h-73l82 666h304z" />
    <glyph glyph-name="G" unicode="G" horiz-adv-x="744" 
d="M414 318h273q-9 -82 -32 -137q-24 -57 -61 -96q-90 -98 -231 -98q-138 0 -228.5 92t-90.5 234q0 157 98 262t245 105q114 0 198 -61q28 -20 44.5 -38.5t41.5 -55.5l-51 -46q-28 47 -64 75q-74 56 -171 56q-116 0 -191 -84t-75 -214q0 -112 69.5 -184t177.5 -72
q91 0 154 51t84 143h-197z" />
    <glyph glyph-name="H" unicode="H" horiz-adv-x="649" 
d="M594 666l-82 -666h-73l41 332h-322l-42 -332h-73l82 666h73l-32 -266h322l33 266h73z" />
    <glyph glyph-name="I" unicode="I" horiz-adv-x="253" 
d="M198 666l-82 -666h-73l82 666h73z" />
    <glyph glyph-name="J" unicode="J" horiz-adv-x="358" 
d="M304 666l-57 -463q-10 -80 -20.5 -115t-32.5 -59q-38 -42 -101 -42q-76 0 -126 70l45 52q20 -30 37.5 -41.5t40.5 -11.5q38 0 55 30.5t28 116.5l57 463h74z" />
    <glyph glyph-name="K" unicode="K" horiz-adv-x="568" 
d="M198 666l-35 -290l298 290h96l-330 -314l284 -352h-93l-261 328l-41 -328h-73l82 666h73z" />
    <glyph glyph-name="L" unicode="L" horiz-adv-x="383" 
d="M198 666l-73 -598h203l-8 -68h-276l81 666h73z" />
    <glyph glyph-name="M" unicode="M" horiz-adv-x="887" 
d="M0 0l277 708l147 -563l288 567l95 -712h-73l-65 490l-267 -519l-135 517l-190 -488h-77z" />
    <glyph glyph-name="N" unicode="N" horiz-adv-x="741" 
d="M686 666l-85 -698l-421 548l-64 -516h-73l86 695l420 -549l64 520h73z" />
    <glyph glyph-name="O" unicode="O" horiz-adv-x="785" 
d="M654 353q0 116 -69.5 186.5t-184.5 70.5q-121 0 -201 -82.5t-80 -207.5q0 -115 73.5 -189.5t186.5 -74.5q119 0 197 84.5t78 212.5zM729 356q0 -161 -99 -265t-253 -104q-146 0 -239 92.5t-93 237.5q0 157 100 260t253 103q146 0 238.5 -91t92.5 -233z" />
    <glyph glyph-name="P" unicode="P" horiz-adv-x="480" 
d="M190 598l-29 -240h64q78 0 113 36q38 38 38 95q0 53 -32 81t-94 28h-60zM125 666h127q97 0 148 -45t51 -131q0 -67 -34.5 -117.5t-92.5 -69.5q-38 -13 -105 -13h-67l-36 -290h-73z" />
    <glyph glyph-name="Q" unicode="Q" horiz-adv-x="783" 
d="M393 208h84l84 -89q92 87 92 228q0 118 -70.5 190.5t-184.5 72.5q-121 0 -199.5 -82.5t-78.5 -208.5q0 -115 72.5 -189t185.5 -74q64 0 128 30zM697 -27h-86l-57 61q-83 -47 -176 -47q-146 0 -239.5 93.5t-93.5 238.5q0 157 99.5 259t253.5 102q145 0 237 -92t92 -238
q0 -167 -121 -279z" />
    <glyph glyph-name="R" unicode="R" horiz-adv-x="513" 
d="M190 598l-30 -243h42q85 0 120 34q41 39 41 102q0 107 -130 107h-43zM253 299l183 -299h-81l-176 295h-26l-37 -295h-73l82 666h109q76 0 120 -22.5t67 -72.5q17 -39 17 -80q0 -80 -49.5 -131.5t-135.5 -60.5z" />
    <glyph glyph-name="S" unicode="S" horiz-adv-x="482" 
d="M445 572l-51 -45q-44 83 -119 83q-47 0 -80 -31.5t-33 -77.5q0 -37 21 -62t84 -63q57 -35 83.5 -58t42.5 -51q21 -39 21 -89q0 -83 -56 -137t-143 -54q-88 0 -146 55q-31 28 -57 87l58 34q23 -56 57 -81.5t86 -25.5q56 0 91.5 35.5t35.5 92.5q0 41 -23 69t-92 69
q-56 33 -82.5 57t-40.5 54q-13 29 -13 69q0 78 52.5 128t134.5 50q110 0 169 -108z" />
    <glyph glyph-name="T" unicode="T" horiz-adv-x="419" 
d="M276 598l-74 -598h-73l74 598h-166l8 68h399l-8 -68h-160z" />
    <glyph glyph-name="U" unicode="U" horiz-adv-x="659" 
d="M604 666l-50 -409q-10 -76 -26.5 -120.5t-48.5 -78.5q-67 -71 -175 -71q-104 0 -168.5 57t-64.5 149q0 37 4 68l50 405h73l-51 -412q-3 -27 -3 -52q0 -68 41.5 -107t114.5 -39q79 0 126 52q43 47 55 156l50 402h73z" />
    <glyph glyph-name="V" unicode="V" horiz-adv-x="558" 
d="M583 666l-362 -688l-176 688h75l125 -505l257 505h81z" />
    <glyph glyph-name="W" unicode="W" horiz-adv-x="914" 
d="M45 666h75l124 -501l249 520l128 -518l237 499h81l-339 -696l-127 518l-253 -518z" />
    <glyph glyph-name="X" unicode="X" horiz-adv-x="504" 
d="M290 345l154 -345h-80l-121 277l-190 -277h-86l243 351l-140 315h79l108 -247l168 247h89z" />
    <glyph glyph-name="Y" unicode="Y" horiz-adv-x="519" 
d="M284 296l-37 -296h-73l37 303l-173 363h80l138 -293l203 293h86z" />
    <glyph glyph-name="Z" unicode="Z" horiz-adv-x="547" 
d="M466 68l-9 -68h-474l441 598h-320l8 68h447l-442 -598h349z" />
    <glyph glyph-name="bracketleft" unicode="[" horiz-adv-x="318" 
d="M19 -169l103 841h198l-7 -61h-126l-89 -720h126l-7 -60h-198z" />
    <glyph glyph-name="backslash" unicode="\" horiz-adv-x="389" 
d="M383 -159l-56 -26l-370 846l56 26z" />
    <glyph glyph-name="bracketright" unicode="]" horiz-adv-x="318" 
d="M267 672l-104 -841h-198l9 60h126l87 720h-126l8 61h198z" />
    <glyph glyph-name="asciicircum" unicode="^" 
d="M84 384h-54l191 282h57l192 -282h-55l-166 241z" />
    <glyph glyph-name="underscore" unicode="_" 
d="M500 -79v-53h-500v53h500z" />
    <glyph glyph-name="grave" unicode="`" horiz-adv-x="284" 
d="M90 575l65 38l75 -133l-43 -24z" />
    <glyph glyph-name="a" unicode="a" horiz-adv-x="523" 
d="M368 219q0 56 -37.5 93t-94.5 37q-62 0 -104.5 -46t-42.5 -114q0 -59 37 -97.5t92 -38.5q62 0 106 49t44 117zM458 403l-50 -403h-70l7 56q-37 -37 -67.5 -51.5t-72.5 -14.5q-83 1 -135.5 55t-52.5 141q0 99 60 163t153 64q49 0 82.5 -17t67.5 -59l8 66h70z" />
    <glyph glyph-name="b" unicode="b" horiz-adv-x="528" 
d="M396 213q0 59 -38 97.5t-96 38.5q-64 0 -107 -46t-43 -114q0 -59 38 -97.5t96 -38.5q62 0 106 47t44 113zM181 729l-47 -378q38 35 69 48.5t73 13.5q83 0 137 -55.5t54 -141.5q0 -95 -61.5 -160.5t-151.5 -65.5q-50 0 -85 17.5t-70 60.5l-8 -68h-70l90 729h70z" />
    <glyph glyph-name="c" unicode="c" horiz-adv-x="411" 
d="M374 362l-9 -76q-32 36 -61.5 51.5t-67.5 15.5q-64 0 -105.5 -46t-41.5 -116q0 -63 39 -102t101 -39q58 0 112 46l-9 -79q-56 -30 -113 -30q-89 0 -145.5 56.5t-56.5 145.5q0 98 61.5 163t153.5 65q42 0 74 -12.5t68 -42.5z" />
    <glyph glyph-name="d" unicode="d" horiz-adv-x="530" 
d="M372 223q0 54 -38 90t-96 36q-63 0 -105.5 -46t-42.5 -115q0 -59 37.5 -97t95.5 -38q63 0 106 49.5t43 120.5zM505 729l-89 -729h-70l6 54q-37 -37 -66.5 -50.5t-71.5 -13.5q-85 0 -140.5 56t-55.5 142q0 96 61.5 160.5t152.5 64.5q49 0 83.5 -18.5t70.5 -64.5l49 399h70
z" />
    <glyph glyph-name="e" unicode="e" horiz-adv-x="468" 
d="M342 243q-5 51 -36.5 80.5t-82.5 29.5q-101 0 -128 -110h247zM89 185q1 -64 35.5 -99.5t95.5 -35.5q70 0 112 54l55 -31q-62 -86 -168 -86q-92 0 -147 54t-55 144q0 99 60 165.5t149 66.5q68 0 117 -40t63 -106q7 -33 7 -83v-3h-324z" />
    <glyph glyph-name="f" unicode="f" horiz-adv-x="228" 
d="M133 345l-42 -345h-70l42 345h-54l7 63h55l24 196q8 69 37 101t82 32q28 0 61 -16l-8 -64q-23 16 -44 16q-28 0 -41 -19.5t-19 -70.5l-22 -175h81l-8 -63h-81z" />
    <glyph glyph-name="g" unicode="g" horiz-adv-x="528" 
d="M375 215q0 59 -37.5 96.5t-97.5 37.5q-64 0 -107 -45.5t-43 -113.5q0 -59 38.5 -98t96.5 -39q63 0 106.5 47t43.5 115zM463 403l-51 -409q-8 -68 -19.5 -102t-34.5 -62q-57 -66 -160 -66q-101 0 -155 60q-22 25 -29.5 50t-8.5 71h66q3 -60 33 -88.5t91 -28.5q69 0 107 41
q28 31 38 110l9 70q-37 -33 -68 -46t-71 -13q-83 0 -137.5 56t-54.5 141q0 96 62 161t154 65q47 0 80.5 -17t69.5 -59l9 66h70z" />
    <glyph glyph-name="h" unicode="h" horiz-adv-x="462" 
d="M181 729l-46 -371q34 32 59 43.5t61 11.5q57 0 92 -30.5t35 -80.5q0 -20 -5 -58l-30 -244h-70l30 244q3 24 3 41q0 31 -18.5 47.5t-53.5 16.5q-104 0 -120 -129l-27 -220h-70l90 729h70z" />
    <glyph glyph-name="i" unicode="i" horiz-adv-x="206" 
d="M141 403l-50 -403h-70l50 403h70zM170 582q0 -19 -13 -32.5t-31 -13.5q-17 0 -29 12.5t-12 30.5q0 19 13 32t30 13t29.5 -12.5t12.5 -29.5z" />
    <glyph glyph-name="j" unicode="j" horiz-adv-x="206" 
d="M140 403l-78 -636h-70l78 636h70zM170 582q0 -19 -13 -32.5t-31 -13.5q-17 0 -29 12.5t-12 30.5q0 19 12.5 32t30.5 13q17 0 29.5 -12.5t12.5 -29.5z" />
    <glyph glyph-name="k" unicode="k" horiz-adv-x="431" 
d="M181 729l-61 -489l188 163h97l-221 -185l199 -218h-91l-177 197l-24 -197h-70l90 729h70z" />
    <glyph glyph-name="l" unicode="l" horiz-adv-x="206" 
d="M181 729l-90 -729h-70l90 729h70z" />
    <glyph glyph-name="m" unicode="m" horiz-adv-x="677" 
d="M142 403l-6 -49q33 34 58.5 47t59.5 13q40 0 62.5 -16.5t37.5 -55.5q34 40 61.5 55.5t65.5 15.5q55 0 85.5 -29t30.5 -81q0 -18 -5 -61l-30 -242h-70l31 246q3 27 3 44q0 28 -17 43.5t-46 15.5q-92 0 -107 -117l-28 -232h-70l29 240q4 27 4 50q0 59 -63 59
q-94 0 -109 -121l-28 -228h-70l50 403h71z" />
    <glyph glyph-name="n" unicode="n" horiz-adv-x="463" 
d="M141 403l-7 -50q37 35 63.5 47.5t61.5 12.5q56 0 89.5 -32t33.5 -86q0 -27 -6 -71l-27 -224h-70l29 235q4 36 4 49q0 31 -18.5 48t-52.5 17q-55 0 -85 -33.5t-39 -104.5l-26 -211h-70l50 403h70z" />
    <glyph glyph-name="o" unicode="o" horiz-adv-x="513" 
d="M379 215q-2 61 -40.5 99.5t-98.5 38.5q-64 0 -107 -45t-43 -111q0 -63 41 -105t103 -42q64 0 104.5 44.5t40.5 114.5v6zM451 218v-10q0 -95 -62 -158t-156 -63q-92 0 -153.5 59t-61.5 149q0 94 65 158t160 64q88 0 146.5 -56t61.5 -143z" />
    <glyph glyph-name="p" unicode="p" horiz-adv-x="527" 
d="M394 219q-3 58 -39 94t-91 36q-64 0 -108 -46.5t-44 -114.5q0 -59 38 -97t97 -38q64 0 105.5 45t41.5 113v8zM140 403l-6 -54q40 37 70 50.5t72 13.5q81 0 135.5 -56t54.5 -141q0 -95 -62.5 -160.5t-152.5 -65.5q-49 0 -81.5 17t-70.5 63l-37 -303h-70l78 636h70z" />
    <glyph glyph-name="q" unicode="q" horiz-adv-x="530" 
d="M374 217q0 57 -38.5 94.5t-96.5 37.5q-63 0 -106.5 -46.5t-43.5 -113.5q0 -59 37.5 -97.5t95.5 -38.5q64 0 108 48t44 116zM465 403l-78 -636h-70l34 284q-37 -34 -69 -47.5t-74 -13.5q-82 0 -136.5 57t-54.5 142q0 95 62.5 159.5t153.5 64.5q50 0 84 -18t69 -62l9 70h70
z" />
    <glyph glyph-name="r" unicode="r" horiz-adv-x="314" 
d="M141 403l-6 -46q31 31 54.5 43.5t52.5 12.5q32 0 65 -23l-42 -58q-25 14 -49 14q-82 0 -99 -138l-26 -208h-70l50 403h70z" />
    <glyph glyph-name="s" unicode="s" horiz-adv-x="347" 
d="M298 366l-44 -44q-41 31 -78 31q-28 0 -47 -15.5t-19 -38.5q0 -21 13.5 -34.5t56.5 -33.5q58 -28 78.5 -53t20.5 -67q0 -55 -40.5 -89.5t-103.5 -34.5q-47 0 -79.5 20t-58.5 65l53 33q32 -55 85 -55q32 0 52 16.5t20 43.5q0 23 -13.5 36t-63.5 37q-49 23 -70.5 49
t-21.5 64q0 52 39.5 86.5t98.5 34.5q67 0 122 -51z" />
    <glyph glyph-name="t" unicode="t" horiz-adv-x="230" 
d="M139 345l-43 -345h-70l43 345h-50l7 63h50l21 166h70l-21 -166h80l-7 -63h-80z" />
    <glyph glyph-name="u" unicode="u" horiz-adv-x="463" 
d="M398 403l-29 -237q-7 -53 -16.5 -79.5t-28.5 -46.5q-48 -50 -131 -50q-72 0 -113 36t-41 100q0 15 4 53l27 224h70l-28 -232q-3 -24 -3 -44q0 -34 23.5 -54t62.5 -20q49 0 72.5 24.5t30.5 83.5l30 242h70z" />
    <glyph glyph-name="v" unicode="v" horiz-adv-x="403" 
d="M399 403l-261 -444l-136 444h74l82 -285l162 285h79z" />
    <glyph glyph-name="w" unicode="w" horiz-adv-x="643" 
d="M639 403l-250 -437l-88 290l-162 -290l-137 437h75l82 -279l161 288l87 -288l153 279h79z" />
    <glyph glyph-name="x" unicode="x" horiz-adv-x="415" 
d="M231 210l136 -210h-82l-101 163l-140 -163h-89l191 216l-120 187h81l86 -140l118 140h89z" />
    <glyph glyph-name="y" unicode="y" horiz-adv-x="423" 
d="M419 403l-358 -631h-79l152 266l-132 365h75l100 -288l163 288h79z" />
    <glyph glyph-name="z" unicode="z" horiz-adv-x="439" 
d="M377 62l-7 -62h-394l303 341h-229l7 62h360l-303 -341h263z" />
    <glyph glyph-name="braceleft" unicode="{" horiz-adv-x="258" 
d="M82 248q34 -17 47.5 -43t13.5 -73v-172q0 -62 18.5 -82t76.5 -21v-40h-14q-72 0 -102.5 34t-30.5 114v167q0 45 -12.5 66t-44.5 30v40q32 9 44.5 30t12.5 66v183q0 70 32 102.5t101 32.5h14v-40q-58 -2 -76.5 -21.5t-18.5 -78.5v-180q0 -48 -13 -72.5t-48 -41.5z" />
    <glyph glyph-name="bar" unicode="|" 
d="M226 666h46v-837h-46v837z" />
    <glyph glyph-name="braceright" unicode="}" horiz-adv-x="258" 
d="M175 250q-34 16 -47.5 42t-13.5 73v173q0 62 -18.5 82t-76.5 21v41h14q72 0 102.5 -34t30.5 -114v-167q0 -46 12.5 -67t44.5 -31v-39q-32 -10 -44.5 -31t-12.5 -66v-182q0 -70 -32 -102.5t-101 -32.5q-2 0 -6 0.5t-8 0.5v40q58 2 76.5 21.5t18.5 78.5v180q0 47 13 71.5
t48 41.5z" />
    <glyph glyph-name="asciitilde" unicode="~" 
d="M463 710l31 -25q-34 -62 -65 -89.5t-67 -27.5q-27 0 -115 40l-47 21q-42 18 -62 18q-27 0 -49.5 -20t-53.5 -72l-30 26q37 61 66.5 86.5t63.5 25.5q21 0 43.5 -7.5t85.5 -36.5q76 -35 96 -35q53 0 103 96z" />
    <glyph glyph-name="nbspace" unicode="&#xa0;" horiz-adv-x="200" 
 />
    <glyph glyph-name="exclamdown" unicode="&#xa1;" horiz-adv-x="267" 
d="M19 -258l64 519h74l-64 -519h-74zM85 371v2q0 21 13.5 35t33.5 14t33.5 -14t13.5 -35q0 -19 -13.5 -33t-33.5 -14q-19 0 -32.5 13t-14.5 32z" />
    <glyph glyph-name="cent" unicode="&#xa2;" horiz-adv-x="546" 
d="M243 192l37 303q-124 -33 -124 -166q0 -53 20 -84.5t67 -52.5zM235 131q-70 19 -109.5 71t-39.5 126q0 94 57 158t145 68l11 95h52l-13 -98q53 -9 103 -51l-9 -73q-24 30 -45 44.5t-55 23.5l-39 -314q36 2 60 12.5t55 39.5l-9 -78q-51 -29 -113 -30l-13 -108h-51z" />
    <glyph glyph-name="sterling" unicode="&#xa3;" horiz-adv-x="546" 
d="M184 266v-25q0 -64 -33 -131q35 -5 93 -28q71 -30 104 -30q57 0 105 49l8 8l39 -53q-72 -67 -151 -67q-39 0 -97 20l-56 21q-50 19 -84 19q-52 0 -105 -61l-42 48q53 61 116 76q34 57 34 114q0 2 -2 38h-104l6 53h91q-8 53 -8 98q0 123 59.5 193t165.5 70q91 0 144 -55.5
t58 -155.5l-68 -20q-1 77 -38 122t-101 45q-68 0 -109 -51t-41 -134q0 -42 7 -87l3 -23h173l-6 -53h-161z" />
    <glyph glyph-name="currency" unicode="&#xa4;" horiz-adv-x="666" 
d="M336 530q-74 0 -126.5 -52t-52.5 -125t52 -125t125 -52q72 0 123.5 52t50.5 125q0 72 -51 124.5t-121 52.5zM61 119l93 92q-51 67 -51 142q0 76 52 143l-94 94l33 33l94 -93q70 52 145 52q74 0 143 -50l92 91l33 -34l-91 -91q53 -66 53 -146q0 -75 -51 -141l92 -92
l-33 -34l-92 92q-68 -54 -145 -54q-75 0 -147 54l-92 -92z" />
    <glyph glyph-name="yen" unicode="&#xa5;" horiz-adv-x="0" 
 />
    <glyph glyph-name="section" unicode="&#xa7;" horiz-adv-x="512" 
d="M138 240q0 -41 30 -69.5t73 -28.5q44 0 74.5 29.5t30.5 71.5t-29.5 70.5t-73.5 28.5t-74.5 -29.5t-30.5 -72.5zM33 -7h72q0 -65 23.5 -94.5t75.5 -29.5q46 0 73 25t27 68q0 35 -19 56.5t-72 46.5l-46 21q-105 49 -105 150q0 79 54 123q26 19 63 34q-42 31 -57.5 58
t-15.5 68q0 73 49.5 119.5t128.5 46.5q58 0 102 -30.5t58 -80.5q8 -29 9 -80h-72q-2 64 -25 93t-73 29q-46 0 -75 -26.5t-29 -69.5q0 -37 19.5 -56.5t81.5 -47.5q74 -34 100 -60q43 -46 43 -111q0 -106 -117 -155q74 -50 74 -127q0 -71 -48 -115t-125 -44q-57 0 -101 26.5
t-60 71.5q-13 34 -13 91z" />
    <glyph glyph-name="dieresis" unicode="&#xa8;" horiz-adv-x="381" 
d="M174 519q0 -19 -14 -33t-33 -14q-18 0 -31 13t-13 32t13.5 33t33.5 14q19 0 31.5 -13t12.5 -32zM332 518q0 -20 -14 -34t-33 -14q-18 0 -31 13.5t-13 32.5t13.5 33t32.5 14q18 0 31.5 -13t13.5 -32z" />
    <glyph glyph-name="copyright" unicode="&#xa9;" horiz-adv-x="784" 
d="M581 296q-6 -76 -56.5 -122.5t-127.5 -46.5q-87 0 -141 57.5t-54 150.5t54.5 151t142.5 58q70 0 120 -39.5t56 -99.5h-44q-10 47 -45.5 73.5t-87.5 26.5q-68 0 -109 -46.5t-41 -123.5t41 -123t108 -46q58 0 94.5 34t44.5 96h45zM391 642q-127 0 -217 -90.5t-90 -218.5
t90 -219t217 -91t217 91t90 219t-90 218.5t-217 90.5zM392 678q143 0 244 -101t101 -244t-101.5 -244t-244.5 -101q-143 1 -244 101.5t-101 243.5t101.5 244t244.5 101z" />
    <glyph glyph-name="ordfeminine" unicode="&#xaa;" horiz-adv-x="438" 
d="M294 531q-14 -10 -42 -12l-43 -3q-84 -8 -84 -61q0 -27 18 -42t50 -15q101 0 101 113v20zM371 315v-30h-288v30h288zM346 375h-43q-7 14 -8 35v11q-27 -32 -49 -43t-59 -11q-50 0 -77.5 22.5t-27.5 63.5q0 83 125 92l49 4q24 2 31.5 9t7.5 26q0 63 -76 63
q-38 0 -57.5 -17t-23.5 -55h-40q7 103 124 103q114 0 114 -95v-6v-31v-35v-56q0 -58 10 -80z" />
    <glyph glyph-name="guillemotleft" unicode="&#xab;" horiz-adv-x="360" 
d="M237 23l-104 181l149 185l39 -32l-126 -155l86 -152zM120 24l-105 185l144 180l40 -32l-122 -152l87 -156z" />
    <glyph glyph-name="logicalnot" unicode="&#xac;" 
d="M445 0v220h-434v43h478v-263h-44z" />
    <glyph glyph-name="macron" unicode="&#xaf;" 
d="M97 639h305v-53h-305v53z" />
    <glyph glyph-name="degree" unicode="&#xb0;" 
d="M249 642q-42 0 -72 -30t-30 -73t30 -73.5t72 -30.5q43 0 72.5 30.5t29.5 73.5t-29.5 73t-72.5 30zM250 679q59 0 100.5 -41t41.5 -99t-41.5 -99t-100.5 -41t-101 41t-42 99t42 99t101 41z" />
    <glyph glyph-name="plusminus" unicode="&#xb1;" 
d="M11 119h478v-47h-478v47zM11 391h215v202h47v-201h216v-47h-215v-185h-47v185h-216v46z" />
    <glyph glyph-name="acute" unicode="&#xb4;" horiz-adv-x="284" 
d="M242 574l-126 -118l-37 25l106 132z" />
    <glyph glyph-name="mu" unicode="&#xb5;" 
d="M52 -166v647h55v-277q0 -59 10.5 -88t40.5 -53q37 -31 84 -31q64 0 105 51t41 131v267h55v-481h-54v93q-27 -57 -61.5 -82t-85.5 -25q-46 0 -77.5 18t-57.5 60v-230h-55z" />
    <glyph glyph-name="paragraph" unicode="&#xb6;" horiz-adv-x="539" 
d="M233 -99v413q-5 -1 -16 -1q-81 0 -132.5 49t-51.5 126q0 56 29.5 100.5t77.5 61.5t111 17h221v-32h-48v-734h-40v734h-110v-734h-41z" />
    <glyph glyph-name="periodcentered" unicode="&#xb7;" horiz-adv-x="119" 
d="M116 348v-4q0 -26 -18 -44.5t-43 -18.5t-42 18t-17 44t16.5 43t41.5 17q24 0 42 -16t20 -39z" />
    <glyph glyph-name="cedilla" unicode="&#xb8;" horiz-adv-x="270" 
d="M146 -83l-107 -121l-41 24l80 133z" />
    <glyph glyph-name="ordmasculine" unicode="&#xba;" horiz-adv-x="445" 
d="M223 645q-46 0 -74 -33t-28 -89t27.5 -89t74.5 -33t74 32.5t27 87.5q0 57 -27.5 90.5t-73.5 33.5zM368 315v-30h-289v30h289zM223 678q65 0 104.5 -43t39.5 -114q0 -70 -39.5 -112t-105.5 -42q-65 0 -104.5 42.5t-39.5 112.5t40 113t105 43z" />
    <glyph glyph-name="guillemotright" unicode="&#xbb;" horiz-adv-x="360" 
d="M81 394l104 -180l-149 -185l-38 32l125 155l-86 152zM197 394l106 -185l-144 -180l-40 32l122 152l-87 156z" />
    <glyph glyph-name="questiondown" unicode="&#xbf;" horiz-adv-x="452" 
d="M112 130h-71q5 68 43 106t102 38q62 0 103.5 -39.5t41.5 -98.5q0 -61 -43 -102q-32 -29 -109 -57q-59 -21 -81 -42.5t-22 -56.5q0 -36 25.5 -60t64.5 -24q90 0 91 120h68q-1 -57 -11.5 -88.5t-37.5 -54.5q-44 -39 -111 -39q-72 0 -116.5 41t-44.5 107q0 55 34 94
q27 32 99 57q71 26 96 48.5t25 59.5q0 31 -20.5 51t-52.5 20q-68 0 -73 -80zM173 373q0 21 13 35t33 14t34 -14t14 -34t-14 -33.5t-34 -13.5q-19 0 -32.5 13.5t-13.5 32.5z" />
    <glyph glyph-name="Agrave" unicode="&#xc0;" horiz-adv-x="616" 
d="M196 254h215l-76 272zM161 186l-97 -186h-80l370 707l206 -707h-75l-53 186h-271zM287 893l65 38l75 -133l-43 -24z" />
    <glyph glyph-name="Aacute" unicode="&#xc1;" horiz-adv-x="616" 
d="M196 254h215l-76 272zM161 186l-97 -186h-80l370 707l206 -707h-75l-53 186h-271zM448 892l-126 -118l-37 25l106 132z" />
    <glyph glyph-name="Acircumflex" unicode="&#xc2;" horiz-adv-x="616" 
d="M196 254h215l-76 272zM161 186l-97 -186h-80l370 707l206 -707h-75l-53 186h-271zM362 860l-99 -86l-34 37l139 122l105 -123l-37 -35z" />
    <glyph glyph-name="Atilde" unicode="&#xc3;" horiz-adv-x="616" 
d="M196 254h215l-76 272zM161 186l-97 -186h-80l370 707l206 -707h-75l-53 186h-271zM498 844q-23 -38 -44.5 -54t-50.5 -16q-24 0 -83 29q-26 11 -39 11q-27 0 -48 -39l-44 28q25 40 46 55.5t50 15.5q19 0 81 -28q29 -13 43 -13q13 0 22.5 8t22.5 31z" />
    <glyph glyph-name="Adieresis" unicode="&#xc4;" horiz-adv-x="616" 
d="M196 254h215l-76 272zM161 186l-97 -186h-80l370 707l206 -707h-75l-53 186h-271zM326 823q0 -19 -14 -33t-33 -14q-18 0 -31 13t-13 32t13.5 33t33.5 14q19 0 31.5 -13t12.5 -32zM484 822q0 -20 -14 -34t-33 -14q-18 0 -31 13.5t-13 32.5t13.5 33t32.5 14q18 0 31.5 -13
t13.5 -32z" />
    <glyph glyph-name="Aring" unicode="&#xc5;" horiz-adv-x="616" 
d="M196 254h215l-76 272zM161 186l-97 -186h-80l370 707l206 -707h-75l-53 186h-271zM398 856q0 14 -10 23.5t-25 9.5q-14 0 -24 -10t-10 -24t10 -24.5t24 -10.5t24.5 10.5t10.5 25.5zM444 857q0 -35 -23.5 -59t-57.5 -24q-33 0 -56.5 23.5t-23.5 57.5t23.5 57t57.5 23
q33 0 56.5 -23t23.5 -55z" />
    <glyph glyph-name="AE" unicode="&#xc6;" horiz-adv-x="904" 
d="M202 256h221l-75 267zM653 666l18 -68h-272l60 -204h272l20 -68h-271l75 -258h273l19 -68h-349l-54 188h-280l-105 -188h-83l370 666h307z" />
    <glyph glyph-name="Ccedilla" unicode="&#xc7;" horiz-adv-x="643" 
d="M344 -83l-107 -121l-41 24l80 133zM614 595l-10 -85q-38 47 -95.5 73.5t-123.5 26.5q-115 0 -190 -83.5t-75 -212.5q0 -118 69 -188t186 -70q108 0 186 68l-11 -90q-93 -47 -186 -47q-141 0 -230 91.5t-89 237.5q0 157 96 260.5t242 103.5q115 0 203 -63q2 -2 11.5 -9
t16.5 -13z" />
    <glyph glyph-name="Egrave" unicode="&#xc8;" horiz-adv-x="466" 
d="M452 666l-9 -68h-253l-25 -203h253l-8 -68h-253l-32 -259h253l-8 -68h-326l81 666h327zM224 852l65 38l75 -133l-43 -24z" />
    <glyph glyph-name="Eacute" unicode="&#xc9;" horiz-adv-x="466" 
d="M452 666l-9 -68h-253l-25 -203h253l-8 -68h-253l-32 -259h253l-8 -68h-326l81 666h327zM426 851l-126 -118l-37 25l106 132z" />
    <glyph glyph-name="Ecircumflex" unicode="&#xca;" horiz-adv-x="466" 
d="M452 666l-9 -68h-253l-25 -203h253l-8 -68h-253l-32 -259h253l-8 -68h-326l81 666h327zM313 819l-99 -86l-34 37l139 122l105 -123l-37 -35z" />
    <glyph glyph-name="Edieresis" unicode="&#xcb;" horiz-adv-x="466" 
d="M452 666l-9 -68h-253l-25 -203h253l-8 -68h-253l-32 -259h253l-8 -68h-326l81 666h327zM262 782q0 -19 -14 -33t-33 -14q-18 0 -31 13t-13 32t13.5 33t33.5 14q19 0 31.5 -13t12.5 -32zM420 781q0 -20 -14 -34t-33 -14q-18 0 -31 13.5t-13 32.5t13.5 33t32.5 14
q18 0 31.5 -13t13.5 -32z" />
    <glyph glyph-name="Igrave" unicode="&#xcc;" horiz-adv-x="253" 
d="M198 666l-82 -666h-73l82 666h73zM94 852l65 38l75 -133l-43 -24z" />
    <glyph glyph-name="Iacute" unicode="&#xcd;" horiz-adv-x="253" 
d="M198 666l-82 -666h-73l82 666h73zM267 851l-126 -118l-37 25l106 132z" />
    <glyph glyph-name="Icircumflex" unicode="&#xce;" horiz-adv-x="253" 
d="M198 666l-82 -666h-73l82 666h73zM169 819l-99 -86l-34 37l139 122l105 -123l-37 -35z" />
    <glyph glyph-name="Idieresis" unicode="&#xcf;" horiz-adv-x="253" 
d="M198 666l-82 -666h-73l82 666h73zM143 782q0 -19 -14 -33t-33 -14q-18 0 -31 13t-13 32t13.5 33t33.5 14q19 0 31.5 -13t12.5 -32zM301 781q0 -20 -14 -34t-33 -14q-18 0 -31 13.5t-13 32.5t13.5 33t32.5 14q18 0 31.5 -13t13.5 -32z" />
    <glyph glyph-name="Ntilde" unicode="&#xd1;" horiz-adv-x="741" 
d="M686 666l-85 -698l-421 548l-64 -516h-73l86 695l420 -549l64 520h73zM552 832q-23 -38 -44.5 -54t-50.5 -16q-24 0 -83 29q-26 11 -39 11q-27 0 -48 -39l-44 28q25 40 46 55.5t50 15.5q19 0 81 -28q29 -13 43 -13q13 0 22.5 8t22.5 31z" />
    <glyph glyph-name="Ograve" unicode="&#xd2;" horiz-adv-x="785" 
d="M654 353q0 116 -69.5 186.5t-184.5 70.5q-121 0 -201 -82.5t-80 -207.5q0 -115 73.5 -189.5t186.5 -74.5q119 0 197 84.5t78 212.5zM729 356q0 -161 -99 -265t-253 -104q-146 0 -239 92.5t-93 237.5q0 157 100 260t253 103q146 0 238.5 -91t92.5 -233zM333 866l65 38
l75 -133l-43 -24z" />
    <glyph glyph-name="Oacute" unicode="&#xd3;" horiz-adv-x="785" 
d="M654 353q0 116 -69.5 186.5t-184.5 70.5q-121 0 -201 -82.5t-80 -207.5q0 -115 73.5 -189.5t186.5 -74.5q119 0 197 84.5t78 212.5zM729 356q0 -161 -99 -265t-253 -104q-146 0 -239 92.5t-93 237.5q0 157 100 260t253 103q146 0 238.5 -91t92.5 -233zM512 865l-126 -118
l-37 25l106 132z" />
    <glyph glyph-name="Ocircumflex" unicode="&#xd4;" horiz-adv-x="785" 
d="M654 353q0 116 -69.5 186.5t-184.5 70.5q-121 0 -201 -82.5t-80 -207.5q0 -115 73.5 -189.5t186.5 -74.5q119 0 197 84.5t78 212.5zM729 356q0 -161 -99 -265t-253 -104q-146 0 -239 92.5t-93 237.5q0 157 100 260t253 103q146 0 238.5 -91t92.5 -233zM422 833l-99 -86
l-34 37l139 122l105 -123l-37 -35z" />
    <glyph glyph-name="Otilde" unicode="&#xd5;" horiz-adv-x="785" 
d="M654 353q0 116 -69.5 186.5t-184.5 70.5q-121 0 -201 -82.5t-80 -207.5q0 -115 73.5 -189.5t186.5 -74.5q119 0 197 84.5t78 212.5zM729 356q0 -161 -99 -265t-253 -104q-146 0 -239 92.5t-93 237.5q0 157 100 260t253 103q146 0 238.5 -91t92.5 -233zM559 817
q-23 -38 -44.5 -54t-50.5 -16q-24 0 -83 29q-26 11 -39 11q-27 0 -48 -39l-44 28q25 40 46 55.5t50 15.5q19 0 81 -28q29 -13 43 -13q13 0 22.5 8t22.5 31z" />
    <glyph glyph-name="Odieresis" unicode="&#xd6;" horiz-adv-x="785" 
d="M654 353q0 116 -69.5 186.5t-184.5 70.5q-121 0 -201 -82.5t-80 -207.5q0 -115 73.5 -189.5t186.5 -74.5q119 0 197 84.5t78 212.5zM729 356q0 -161 -99 -265t-253 -104q-146 0 -239 92.5t-93 237.5q0 157 100 260t253 103q146 0 238.5 -91t92.5 -233zM401 796
q0 -19 -14 -33t-33 -14q-18 0 -31 13t-13 32t13.5 33t33.5 14q19 0 31.5 -13t12.5 -32zM559 795q0 -20 -14 -34t-33 -14q-18 0 -31 13.5t-13 32.5t13.5 33t32.5 14q18 0 31.5 -13t13.5 -32z" />
    <glyph glyph-name="Oslash" unicode="&#xd8;" horiz-adv-x="785" 
d="M158 176l413 375q-70 59 -172 59q-121 0 -200.5 -82t-79.5 -207q0 -78 39 -145zM200 123q76 -67 179 -67q118 0 196.5 84t78.5 212q0 88 -39 149zM145 72l-93 -83l-45 49l94 86q-56 88 -56 194q0 156 100 259t252 103q134 0 227 -80l94 85l45 -49l-94 -85q60 -83 60 -198
q0 -158 -99.5 -262t-251.5 -104q-141 0 -233 85z" />
    <glyph glyph-name="Ugrave" unicode="&#xd9;" horiz-adv-x="659" 
d="M604 666l-50 -409q-10 -76 -26.5 -120.5t-48.5 -78.5q-67 -71 -175 -71q-104 0 -168.5 57t-64.5 149q0 37 4 68l50 405h73l-51 -412q-3 -27 -3 -52q0 -68 41.5 -107t114.5 -39q79 0 126 52q43 47 55 156l50 402h73zM280 852l65 38l75 -133l-43 -24z" />
    <glyph glyph-name="Uacute" unicode="&#xda;" horiz-adv-x="659" 
d="M604 666l-50 -409q-10 -76 -26.5 -120.5t-48.5 -78.5q-67 -71 -175 -71q-104 0 -168.5 57t-64.5 149q0 37 4 68l50 405h73l-51 -412q-3 -27 -3 -52q0 -68 41.5 -107t114.5 -39q79 0 126 52q43 47 55 156l50 402h73zM474 851l-126 -118l-37 25l106 132z" />
    <glyph glyph-name="Ucircumflex" unicode="&#xdb;" horiz-adv-x="659" 
d="M604 666l-50 -409q-10 -76 -26.5 -120.5t-48.5 -78.5q-67 -71 -175 -71q-104 0 -168.5 57t-64.5 149q0 37 4 68l50 405h73l-51 -412q-3 -27 -3 -52q0 -68 41.5 -107t114.5 -39q79 0 126 52q43 47 55 156l50 402h73zM378 819l-99 -86l-34 37l139 122l105 -123l-37 -35z
" />
    <glyph glyph-name="Udieresis" unicode="&#xdc;" horiz-adv-x="659" 
d="M604 666l-50 -409q-10 -76 -26.5 -120.5t-48.5 -78.5q-67 -71 -175 -71q-104 0 -168.5 57t-64.5 149q0 37 4 68l50 405h73l-51 -412q-3 -27 -3 -52q0 -68 41.5 -107t114.5 -39q79 0 126 52q43 47 55 156l50 402h73zM351 782q0 -19 -14 -33t-33 -14q-18 0 -31 13t-13 32
t13.5 33t33.5 14q19 0 31.5 -13t12.5 -32zM509 781q0 -20 -14 -34t-33 -14q-18 0 -31 13.5t-13 32.5t13.5 33t32.5 14q18 0 31.5 -13t13.5 -32z" />
    <glyph glyph-name="germandbls" unicode="&#xdf;" horiz-adv-x="482" 
d="M21 0l43 349h-43l6 54h43l18 144q13 97 51 141q44 52 121 52q75 0 121 -46t46 -120q0 -68 -34.5 -117.5t-96.5 -70.5q35 -16 52.5 -29t33.5 -35q33 -47 33 -106q0 -97 -57.5 -159.5t-146.5 -62.5q-30 0 -64 7l8 63q29 -7 52 -7q61 0 98.5 44.5t37.5 118.5q0 52 -24 86.5
t-68 45.5q-23 6 -60 7l7 54h6q69 0 110 44.5t41 119.5q0 45 -26 72t-68 27q-45 0 -70 -33t-34 -104l-66 -539h-70z" />
    <glyph glyph-name="agrave" unicode="&#xe0;" horiz-adv-x="523" 
d="M368 219q0 56 -37.5 93t-94.5 37q-62 0 -104.5 -46t-42.5 -114q0 -59 37 -97.5t92 -38.5q62 0 106 49t44 117zM458 403l-50 -403h-70l7 56q-37 -37 -67.5 -51.5t-72.5 -14.5q-83 1 -135.5 55t-52.5 141q0 99 60 163t153 64q49 0 82.5 -17t67.5 -59l8 66h70zM149 599
l65 38l75 -133l-43 -24z" />
    <glyph glyph-name="aacute" unicode="&#xe1;" horiz-adv-x="523" 
d="M368 219q0 56 -37.5 93t-94.5 37q-62 0 -104.5 -46t-42.5 -114q0 -59 37 -97.5t92 -38.5q62 0 106 49t44 117zM458 403l-50 -403h-70l7 56q-37 -37 -67.5 -51.5t-72.5 -14.5q-83 1 -135.5 55t-52.5 141q0 99 60 163t153 64q49 0 82.5 -17t67.5 -59l8 66h70zM359 598
l-126 -118l-37 25l106 132z" />
    <glyph glyph-name="acircumflex" unicode="&#xe2;" horiz-adv-x="523" 
d="M368 219q0 56 -37.5 93t-94.5 37q-62 0 -104.5 -46t-42.5 -114q0 -59 37 -97.5t92 -38.5q62 0 106 49t44 117zM458 403l-50 -403h-70l7 56q-37 -37 -67.5 -51.5t-72.5 -14.5q-83 1 -135.5 55t-52.5 141q0 99 60 163t153 64q49 0 82.5 -17t67.5 -59l8 66h70zM254 566
l-99 -86l-34 37l139 122l105 -123l-37 -35z" />
    <glyph glyph-name="atilde" unicode="&#xe3;" horiz-adv-x="523" 
d="M368 219q0 56 -37.5 93t-94.5 37q-62 0 -104.5 -46t-42.5 -114q0 -59 37 -97.5t92 -38.5q62 0 106 49t44 117zM458 403l-50 -403h-70l7 56q-37 -37 -67.5 -51.5t-72.5 -14.5q-83 1 -135.5 55t-52.5 141q0 99 60 163t153 64q49 0 82.5 -17t67.5 -59l8 66h70zM406 550
q-23 -38 -44.5 -54t-50.5 -16q-24 0 -83 29q-26 11 -39 11q-27 0 -48 -39l-44 28q25 40 46 55.5t50 15.5q19 0 81 -28q29 -13 43 -13q13 0 22.5 8t22.5 31z" />
    <glyph glyph-name="adieresis" unicode="&#xe4;" horiz-adv-x="523" 
d="M368 219q0 56 -37.5 93t-94.5 37q-62 0 -104.5 -46t-42.5 -114q0 -59 37 -97.5t92 -38.5q62 0 106 49t44 117zM458 403l-50 -403h-70l7 56q-37 -37 -67.5 -51.5t-72.5 -14.5q-83 1 -135.5 55t-52.5 141q0 99 60 163t153 64q49 0 82.5 -17t67.5 -59l8 66h70zM242 529
q0 -19 -14 -33t-33 -14q-18 0 -31 13t-13 32t13.5 33t33.5 14q19 0 31.5 -13t12.5 -32zM400 528q0 -20 -14 -34t-33 -14q-18 0 -31 13.5t-13 32.5t13.5 33t32.5 14q18 0 31.5 -13t13.5 -32z" />
    <glyph glyph-name="aring" unicode="&#xe5;" horiz-adv-x="523" 
d="M368 219q0 56 -37.5 93t-94.5 37q-62 0 -104.5 -46t-42.5 -114q0 -59 37 -97.5t92 -38.5q62 0 106 49t44 117zM458 403l-50 -403h-70l7 56q-37 -37 -67.5 -51.5t-72.5 -14.5q-83 1 -135.5 55t-52.5 141q0 99 60 163t153 64q49 0 82.5 -17t67.5 -59l8 66h70zM314 562
q0 14 -10 23.5t-25 9.5q-14 0 -24 -10t-10 -24t10 -24.5t24 -10.5t24.5 10.5t10.5 25.5zM360 563q0 -35 -23.5 -59t-57.5 -24q-33 0 -56.5 23.5t-23.5 57.5t23.5 57t57.5 23q33 0 56.5 -23t23.5 -55z" />
    <glyph glyph-name="ae" unicode="&#xe6;" horiz-adv-x="745" 
d="M372 243h251q-4 51 -36.5 80.5t-83.5 29.5q-99 0 -131 -110zM288 129q-2 30 -33 48.5t-80 18.5q-44 0 -72 -20t-28 -51q0 -32 29.5 -53.5t74.5 -21.5q48 0 78.5 21t30.5 55v3zM365 185q0 -3 -0.5 -7.5t-0.5 -6.5q0 -54 37 -87.5t97 -33.5q67 0 115 55l49 -35
q-63 -83 -169 -83q-115 0 -164 90q-54 -90 -154 -90q-73 0 -122.5 39.5t-49.5 98.5q0 58 47 96.5t117 38.5q80 0 132 -52l2 24l5 31q1 8 1 22q0 32 -28 50t-80 18q-47 0 -107 -16l9 65q61 15 106 15q116 0 152 -77q58 77 145 77q83 0 134.5 -58.5t51.5 -152.5v-21h-325z" />
    <glyph glyph-name="ccedilla" unicode="&#xe7;" horiz-adv-x="411" 
d="M222 -83l-107 -121l-41 24l80 133zM374 362l-9 -76q-32 36 -61.5 51.5t-67.5 15.5q-64 0 -105.5 -46t-41.5 -116q0 -63 39 -102t101 -39q58 0 112 46l-9 -79q-56 -30 -113 -30q-89 0 -145.5 56.5t-56.5 145.5q0 98 61.5 163t153.5 65q42 0 74 -12.5t68 -42.5z" />
    <glyph glyph-name="egrave" unicode="&#xe8;" horiz-adv-x="468" 
d="M342 243q-5 51 -36.5 80.5t-82.5 29.5q-101 0 -128 -110h247zM89 185q1 -64 35.5 -99.5t95.5 -35.5q70 0 112 54l55 -31q-62 -86 -168 -86q-92 0 -147 54t-55 144q0 99 60 165.5t149 66.5q68 0 117 -40t63 -106q7 -33 7 -83v-3h-324zM162 603l65 38l75 -133l-43 -24z" />
    <glyph glyph-name="eacute" unicode="&#xe9;" horiz-adv-x="468" 
d="M342 243q-5 51 -36.5 80.5t-82.5 29.5q-101 0 -128 -110h247zM89 185q1 -64 35.5 -99.5t95.5 -35.5q70 0 112 54l55 -31q-62 -86 -168 -86q-92 0 -147 54t-55 144q0 99 60 165.5t149 66.5q68 0 117 -40t63 -106q7 -33 7 -83v-3h-324zM336 602l-126 -118l-37 25l106 132z
" />
    <glyph glyph-name="ecircumflex" unicode="&#xea;" horiz-adv-x="468" 
d="M342 243q-5 51 -36.5 80.5t-82.5 29.5q-101 0 -128 -110h247zM89 185q1 -64 35.5 -99.5t95.5 -35.5q70 0 112 54l55 -31q-62 -86 -168 -86q-92 0 -147 54t-55 144q0 99 60 165.5t149 66.5q68 0 117 -40t63 -106q7 -33 7 -83v-3h-324zM247 570l-99 -86l-34 37l139 122
l105 -123l-37 -35z" />
    <glyph glyph-name="edieresis" unicode="&#xeb;" horiz-adv-x="468" 
d="M342 243q-5 51 -36.5 80.5t-82.5 29.5q-101 0 -128 -110h247zM89 185q1 -64 35.5 -99.5t95.5 -35.5q70 0 112 54l55 -31q-62 -86 -168 -86q-92 0 -147 54t-55 144q0 99 60 165.5t149 66.5q68 0 117 -40t63 -106q7 -33 7 -83v-3h-324zM206 533q0 -19 -14 -33t-33 -14
q-18 0 -31 13t-13 32t13.5 33t33.5 14q19 0 31.5 -13t12.5 -32zM364 532q0 -20 -14 -34t-33 -14q-18 0 -31 13.5t-13 32.5t13.5 33t32.5 14q18 0 31.5 -13t13.5 -32z" />
    <glyph glyph-name="igrave" unicode="&#xec;" horiz-adv-x="206" 
d="M141 403l-50 -403h-70l50 403h70zM50 589l65 38l75 -133l-43 -24z" />
    <glyph glyph-name="iacute" unicode="&#xed;" horiz-adv-x="206" 
d="M141 403l-50 -403h-70l50 403h70zM222 588l-126 -118l-37 25l106 132z" />
    <glyph glyph-name="icircumflex" unicode="&#xee;" horiz-adv-x="206" 
d="M141 403l-50 -403h-70l50 403h70zM125 556l-99 -86l-34 37l139 122l105 -123l-37 -35z" />
    <glyph glyph-name="idieresis" unicode="&#xef;" horiz-adv-x="206" 
d="M141 403l-50 -403h-70l50 403h70zM81 519q0 -19 -14 -33t-33 -14q-18 0 -31 13t-13 32t13.5 33t33.5 14q19 0 31.5 -13t12.5 -32zM239 518q0 -20 -14 -34t-33 -14q-18 0 -31 13.5t-13 32.5t13.5 33t32.5 14q18 0 31.5 -13t13.5 -32z" />
    <glyph glyph-name="ntilde" unicode="&#xf1;" horiz-adv-x="463" 
d="M141 403l-7 -50q37 35 63.5 47.5t61.5 12.5q56 0 89.5 -32t33.5 -86q0 -27 -6 -71l-27 -224h-70l29 235q4 36 4 49q0 31 -18.5 48t-52.5 17q-55 0 -85 -33.5t-39 -104.5l-26 -211h-70l50 403h70zM393 550q-23 -38 -44.5 -54t-50.5 -16q-24 0 -83 29q-26 11 -39 11
q-27 0 -48 -39l-44 28q25 40 46 55.5t50 15.5q19 0 81 -28q29 -13 43 -13q13 0 22.5 8t22.5 31z" />
    <glyph glyph-name="ograve" unicode="&#xf2;" horiz-adv-x="513" 
d="M379 215q-2 61 -40.5 99.5t-98.5 38.5q-64 0 -107 -45t-43 -111q0 -63 41 -105t103 -42q64 0 104.5 44.5t40.5 114.5v6zM451 218v-10q0 -95 -62 -158t-156 -63q-92 0 -153.5 59t-61.5 149q0 94 65 158t160 64q88 0 146.5 -56t61.5 -143zM180 603l65 38l75 -133l-43 -24z
" />
    <glyph glyph-name="oacute" unicode="&#xf3;" horiz-adv-x="513" 
d="M379 215q-2 61 -40.5 99.5t-98.5 38.5q-64 0 -107 -45t-43 -111q0 -63 41 -105t103 -42q64 0 104.5 44.5t40.5 114.5v6zM451 218v-10q0 -95 -62 -158t-156 -63q-92 0 -153.5 59t-61.5 149q0 94 65 158t160 64q88 0 146.5 -56t61.5 -143zM344 602l-126 -118l-37 25
l106 132z" />
    <glyph glyph-name="ocircumflex" unicode="&#xf4;" horiz-adv-x="513" 
d="M379 215q-2 61 -40.5 99.5t-98.5 38.5q-64 0 -107 -45t-43 -111q0 -63 41 -105t103 -42q64 0 104.5 44.5t40.5 114.5v6zM451 218v-10q0 -95 -62 -158t-156 -63q-92 0 -153.5 59t-61.5 149q0 94 65 158t160 64q88 0 146.5 -56t61.5 -143zM247 570l-99 -86l-34 37l139 122
l105 -123l-37 -35z" />
    <glyph glyph-name="otilde" unicode="&#xf5;" horiz-adv-x="513" 
d="M379 215q-2 61 -40.5 99.5t-98.5 38.5q-64 0 -107 -45t-43 -111q0 -63 41 -105t103 -42q64 0 104.5 44.5t40.5 114.5v6zM451 218v-10q0 -95 -62 -158t-156 -63q-92 0 -153.5 59t-61.5 149q0 94 65 158t160 64q88 0 146.5 -56t61.5 -143zM408 554q-23 -38 -44.5 -54
t-50.5 -16q-24 0 -83 29q-26 11 -39 11q-27 0 -48 -39l-44 28q25 40 46 55.5t50 15.5q19 0 81 -28q29 -13 43 -13q13 0 22.5 8t22.5 31z" />
    <glyph glyph-name="odieresis" unicode="&#xf6;" horiz-adv-x="513" 
d="M379 215q-2 61 -40.5 99.5t-98.5 38.5q-64 0 -107 -45t-43 -111q0 -63 41 -105t103 -42q64 0 104.5 44.5t40.5 114.5v6zM451 218v-10q0 -95 -62 -158t-156 -63q-92 0 -153.5 59t-61.5 149q0 94 65 158t160 64q88 0 146.5 -56t61.5 -143zM235 533q0 -19 -14 -33t-33 -14
q-18 0 -31 13t-13 32t13.5 33t33.5 14q19 0 31.5 -13t12.5 -32zM393 532q0 -20 -14 -34t-33 -14q-18 0 -31 13.5t-13 32.5t13.5 33t32.5 14q18 0 31.5 -13t13.5 -32z" />
    <glyph glyph-name="divide" unicode="&#xf7;" 
d="M11 365h478v-47h-478v47zM249 195q18 0 30.5 -13t12.5 -30q0 -18 -12.5 -30.5t-30.5 -12.5q-17 0 -29.5 12.5t-12.5 30.5q0 17 12.5 30t29.5 13zM249 574q18 0 30.5 -12.5t12.5 -29.5q0 -18 -12.5 -30.5t-30.5 -12.5q-17 0 -29.5 12.5t-12.5 30.5q0 17 12.5 29.5
t29.5 12.5z" />
    <glyph glyph-name="oslash" unicode="&#xf8;" horiz-adv-x="554" 
d="M125 127l222 197q-39 29 -88 29q-64 0 -107 -45t-43 -111q0 -32 16 -70zM163 81q42 -31 90 -31q64 0 105 44.5t41 113.5q0 34 -15 68zM111 34l-75 -66l-39 44l74 67q-34 57 -34 116q0 94 65 158t160 64q76 0 137 -47l75 66l40 -45l-75 -66q32 -55 32 -119
q0 -94 -62.5 -156.5t-155.5 -62.5q-80 0 -142 47z" />
    <glyph glyph-name="ugrave" unicode="&#xf9;" horiz-adv-x="463" 
d="M398 403l-29 -237q-7 -53 -16.5 -79.5t-28.5 -46.5q-48 -50 -131 -50q-72 0 -113 36t-41 100q0 15 4 53l27 224h70l-28 -232q-3 -24 -3 -44q0 -34 23.5 -54t62.5 -20q49 0 72.5 24.5t30.5 83.5l30 242h70zM159 589l65 38l75 -133l-43 -24z" />
    <glyph glyph-name="uacute" unicode="&#xfa;" horiz-adv-x="463" 
d="M398 403l-29 -237q-7 -53 -16.5 -79.5t-28.5 -46.5q-48 -50 -131 -50q-72 0 -113 36t-41 100q0 15 4 53l27 224h70l-28 -232q-3 -24 -3 -44q0 -34 23.5 -54t62.5 -20q49 0 72.5 24.5t30.5 83.5l30 242h70zM327 588l-126 -118l-37 25l106 132z" />
    <glyph glyph-name="ucircumflex" unicode="&#xfb;" horiz-adv-x="463" 
d="M398 403l-29 -237q-7 -53 -16.5 -79.5t-28.5 -46.5q-48 -50 -131 -50q-72 0 -113 36t-41 100q0 15 4 53l27 224h70l-28 -232q-3 -24 -3 -44q0 -34 23.5 -54t62.5 -20q49 0 72.5 24.5t30.5 83.5l30 242h70zM243 556l-99 -86l-34 37l139 122l105 -123l-37 -35z" />
    <glyph glyph-name="udieresis" unicode="&#xfc;" horiz-adv-x="463" 
d="M398 403l-29 -237q-7 -53 -16.5 -79.5t-28.5 -46.5q-48 -50 -131 -50q-72 0 -113 36t-41 100q0 15 4 53l27 224h70l-28 -232q-3 -24 -3 -44q0 -34 23.5 -54t62.5 -20q49 0 72.5 24.5t30.5 83.5l30 242h70zM214 519q0 -19 -14 -33t-33 -14q-18 0 -31 13t-13 32t13.5 33
t33.5 14q19 0 31.5 -13t12.5 -32zM372 518q0 -20 -14 -34t-33 -14q-18 0 -31 13.5t-13 32.5t13.5 33t32.5 14q18 0 31.5 -13t13.5 -32z" />
    <glyph glyph-name="ydieresis" unicode="&#xff;" horiz-adv-x="423" 
d="M419 403l-358 -631h-79l152 266l-132 365h75l100 -288l163 288h79zM178 519q0 -19 -14 -33t-33 -14q-18 0 -31 13t-13 32t13.5 33t33.5 14q19 0 31.5 -13t12.5 -32zM336 518q0 -20 -14 -34t-33 -14q-18 0 -31 13.5t-13 32.5t13.5 33t32.5 14q18 0 31.5 -13t13.5 -32z" />
    <glyph glyph-name="dotlessi" unicode="&#x131;" horiz-adv-x="206" 
d="M141 403l-50 -403h-70l50 403h70z" />
    <glyph glyph-name="OE" unicode="&#x152;" horiz-adv-x="1049" 
d="M656 347q0 118 -68 186q-35 36 -87 57t-105 21q-118 0 -197.5 -86t-79.5 -214q0 -111 73.5 -183.5t186.5 -72.5q120 0 198.5 82.5t78.5 209.5zM1032 666l-8 -68h-258l-27 -205h261l-8 -68h-260l-32 -257h261l-9 -68h-335l14 108q-46 -49 -76 -69q-76 -52 -181 -52
q-142 0 -236 93.5t-94 235.5q0 155 101 259.5t251 104.5q113 0 190 -55q28 -21 47 -43t48 -66l18 150h333z" />
    <glyph glyph-name="oe" unicode="&#x153;" horiz-adv-x="839" 
d="M464 241h252q-3 54 -33.5 83t-83.5 29t-88 -29t-47 -83zM391 210q0 62 -42 102.5t-107 40.5q-66 0 -109 -44t-43 -112q0 -64 41 -105.5t105 -41.5q67 0 111 45.5t44 114.5zM459 183q2 -65 36.5 -99t96.5 -34q71 0 112 61l55 -35q-65 -89 -168 -89q-62 0 -110 28
q-22 13 -34.5 26.5t-29.5 42.5q-63 -97 -181 -97q-95 0 -156.5 60t-61.5 151q0 94 64 156.5t160 62.5q125 0 186 -103q23 38 52 61q53 42 121 42q84 0 133.5 -56t49.5 -151v-27h-325z" />
    <glyph glyph-name="Ydieresis" unicode="&#x178;" horiz-adv-x="519" 
d="M284 296l-37 -296h-73l37 303l-173 363h80l138 -293l203 293h86zM264 782q0 -19 -14 -33t-33 -14q-18 0 -31 13t-13 32t13.5 33t33.5 14q19 0 31.5 -13t12.5 -32zM422 781q0 -20 -14 -34t-33 -14q-18 0 -31 13.5t-13 32.5t13.5 33t32.5 14q18 0 31.5 -13t13.5 -32z" />
    <glyph glyph-name="florin" unicode="&#x192;" horiz-adv-x="546" 
d="M314 443h107l-8 -52h-108l-61 -301q-15 -74 -26 -106q-23 -66 -67 -90q-35 -20 -83 -20q-26 0 -55 8l12 61q24 -5 42 -5q47 0 70 32t41 122l59 299h-71l7 52h74l31 152q11 56 29 86t50 45q30 14 65 14q25 0 56 -11l-12 -61q-24 9 -42 9q-37 0 -53 -20t-29 -81z" />
    <glyph glyph-name="circumflex" unicode="&#x2c6;" horiz-adv-x="377" 
d="M213 541l-99 -86l-34 37l139 122l105 -123l-37 -35z" />
    <glyph glyph-name="caron" unicode="&#x2c7;" horiz-adv-x="377" 
d="M202 528l99 86l34 -37l-139 -122l-106 122l38 36z" />
    <glyph glyph-name="breve" unicode="&#x2d8;" 
d="M128 666h64q9 -50 58 -50q43 0 58 50h63q-10 -50 -41.5 -78.5t-78.5 -28.5q-50 0 -84.5 30.5t-38.5 76.5z" />
    <glyph glyph-name="dotaccent" unicode="&#x2d9;" 
d="M212 656h75v-86h-75v86z" />
    <glyph glyph-name="ring" unicode="&#x2da;" horiz-adv-x="293" 
d="M202 551q0 14 -10 23.5t-25 9.5q-14 0 -24 -10t-10 -24t10 -24.5t24 -10.5t24.5 10.5t10.5 25.5zM248 552q0 -35 -23.5 -59t-57.5 -24q-33 0 -56.5 23.5t-23.5 57.5t23.5 57t57.5 23q33 0 56.5 -23t23.5 -55z" />
    <glyph glyph-name="ogonek" unicode="&#x2db;" 
d="M248 0h45q-73 -41 -73 -81q0 -22 17 -36t45 -14q20 0 37 8v-40q-27 -9 -46 -9q-41 0 -67 22.5t-26 57.5q0 55 68 92z" />
    <glyph glyph-name="tilde" unicode="&#x2dc;" horiz-adv-x="437" 
d="M392 555q-23 -38 -44.5 -54t-50.5 -16q-24 0 -83 29q-26 11 -39 11q-27 0 -48 -39l-44 28q25 40 46 55.5t50 15.5q19 0 81 -28q29 -13 43 -13q13 0 22.5 8t22.5 31z" />
    <glyph glyph-name="hungarumlaut" unicode="&#x2dd;" 
d="M441 636l-84 -110h-72l43 110h113zM281 636l-84 -110h-72l43 110h113z" />
    <glyph glyph-name="pi" unicode="&#x3c0;" horiz-adv-x="558" 
d="M100 0v471h-69v46h496v-46h-68v-471h-56v471h-246v-471h-57z" />
    <glyph glyph-name="endash" unicode="&#x2013;" 
d="M11 365h478v-47h-478v47z" />
    <glyph glyph-name="emdash" unicode="&#x2014;" horiz-adv-x="541" 
d="M524 240l-8 -62h-541l8 62h541z" />
    <glyph glyph-name="quoteleft" unicode="&#x2018;" horiz-adv-x="250" 
d="M68 502l125 204l41 -23l-112 -211z" />
    <glyph glyph-name="quoteright" unicode="&#x2019;" horiz-adv-x="250" 
d="M233 676l-124 -203l-42 22l112 211z" />
    <glyph glyph-name="quotedblleft" unicode="&#x201c;" horiz-adv-x="386" 
d="M68 502l125 204l41 -23l-112 -211zM203 502l125 204l42 -23l-112 -211z" />
    <glyph glyph-name="quotedblright" unicode="&#x201d;" horiz-adv-x="386" 
d="M369 676l-125 -203l-41 22l112 211zM233 676l-124 -203l-42 22l112 211z" />
    <glyph glyph-name="quotedblbase" unicode="&#x201e;" horiz-adv-x="379" 
d="M282 80l-124 -203l-42 23l112 210zM147 80l-125 -203l-41 23l112 210z" />
    <glyph glyph-name="dagger" unicode="&#x2020;" horiz-adv-x="499" 
d="M320 672l-21 -175h161l-9 -66h-160l-70 -564h-69l69 564h-161l7 66h162l22 175h69z" />
    <glyph glyph-name="daggerdbl" unicode="&#x2021;" horiz-adv-x="499" 
d="M320 672l-21 -175h161l-9 -66h-160l-39 -314h161l-8 -67h-160l-24 -183h-69l22 183h-161l8 67h162l38 314h-161l7 66h162l22 175h69z" />
    <glyph glyph-name="bullet" unicode="&#x2022;" horiz-adv-x="255" 
d="M127 407q29 0 49 -20t20 -48q-1 -28 -21 -48t-48 -20t-48 20t-20 48t20 48t48 20z" />
    <glyph glyph-name="ellipsis" unicode="&#x2026;" horiz-adv-x="660" 
d="M555 43v-3q0 -20 -13.5 -34t-33.5 -14t-33.5 13.5t-13.5 33.5t13.5 33.5t33.5 13.5q18 0 32 -12t15 -31zM335 43v-3q0 -20 -13.5 -34t-33.5 -14t-33.5 13.5t-13.5 33.5t13 33.5t33 13.5q19 0 33 -12t15 -31zM115 43v-3q0 -20 -14 -34t-34 -14q-19 0 -32.5 13.5
t-13.5 33.5t13 33.5t33 13.5q19 0 33 -12t15 -31z" />
    <glyph glyph-name="perthousand" unicode="&#x2030;" horiz-adv-x="1049" 
d="M941 189q0 44 -18.5 71t-48.5 27q-36 0 -61.5 -44t-25.5 -105q0 -45 18 -72.5t48 -27.5q37 0 62.5 44t25.5 107zM625 194q-10 93 -67 93q-36 0 -61.5 -44t-25.5 -105q0 -45 18 -72.5t48 -27.5q35 0 62 44t27 100q0 2 -0.5 6t-0.5 6zM249 530q0 44 -18 70.5t-48 26.5
q-36 0 -62 -44t-26 -105q0 -44 18.5 -71.5t48.5 -27.5q37 0 62 43.5t25 107.5zM991 195v-7q0 -85 -39 -140.5t-99 -55.5q-53 0 -84.5 41t-31.5 109q0 82 40 137.5t99 55.5q48 0 80.5 -39.5t34.5 -100.5zM675 195v-7q0 -85 -39 -140.5t-99 -55.5q-53 0 -84.5 41t-31.5 109
q0 82 40 137.5t99 55.5q48 0 80.5 -39.5t34.5 -100.5zM98 15l490 661l35 -26l-490 -659zM299 535v-7q0 -86 -39 -141.5t-99 -55.5q-53 0 -84.5 41.5t-31.5 110.5q0 81 40 136.5t99 55.5q49 0 81.5 -39.5t33.5 -100.5z" />
    <glyph glyph-name="guilsinglleft" unicode="&#x2039;" horiz-adv-x="241" 
d="M120 24l-105 185l144 180l40 -32l-122 -152l87 -156z" />
    <glyph glyph-name="guilsinglright" unicode="&#x203a;" horiz-adv-x="241" 
d="M78 394l106 -185l-144 -180l-40 32l122 152l-87 156z" />
    <glyph glyph-name="fraction" unicode="&#x2044;" horiz-adv-x="164" 
d="M306 661l-407 -661h-40l407 661h40z" />
    <glyph glyph-name="trademark" unicode="&#x2122;" horiz-adv-x="846" 
d="M330 666v-38h-135v-361h-46v361h-137v38h318zM778 666v-399h-41v350l-147 -351h-28l-143 350v-350h-43v400h65l134 -318l139 318h64z" />
    <glyph glyph-name="Omega" unicode="&#x2126;" horiz-adv-x="666" 
d="M12 0v51h201q-196 109 -196 309q0 137 91 230t225 93q134 -1 225 -93.5t91 -229.5q0 -200 -196 -309h201v-51h-269v48q52 29 82 53t56 58q66 87 66 196q0 117 -73.5 196.5t-181.5 79.5q-111 0 -184 -78.5t-73 -197.5q0 -195 205 -307v-48h-270z" />
    <glyph glyph-name="partialdiff" unicode="&#x2202;" 
d="M245 391q-70 0 -119.5 -52.5t-49.5 -127.5q0 -73 49 -125.5t117 -52.5q70 0 117.5 52.5t47.5 129.5t-45.5 126.5t-116.5 49.5zM392 371q-9 53 -39.5 107.5t-67.5 84.5q-54 43 -120 65q-28 10 -74 15l14 32q63 -6 104 -24q45 -19 91 -56.5t74 -78.5q50 -75 72 -170
q12 -50 12 -101q0 -115 -60 -185.5t-158 -70.5q-89 0 -152 65t-63 158t63 158.5t152 65.5q79 0 152 -65z" />
    <glyph glyph-name="Delta" unicode="&#x2206;" horiz-adv-x="666" 
d="M75 44h514l-259 573zM3 0l293 666h67l300 -666h-660z" />
    <glyph glyph-name="product" unicode="&#x220f;" horiz-adv-x="666" 
d="M4 750h658v-39h-84v-921h84v-40h-224v39h90v921h-389v-920h88v-40h-223v39h85v921h-85v40z" />
    <glyph glyph-name="radical" unicode="&#x221a;" horiz-adv-x="666" 
d="M632 782v-39h-144l-279 -757l-106 326h-69v40h100l79 -252l243 682h176z" />
    <glyph glyph-name="infinity" unicode="&#x221e;" horiz-adv-x="666" 
d="M304 334q-42 57 -78.5 82t-78.5 25q-46 0 -74.5 -29.5t-28.5 -76.5q0 -48 28.5 -78t74.5 -30q40 0 76.5 25t80.5 82zM361 334q81 -107 159 -107q46 0 73.5 29.5t27.5 76.5q0 50 -28 79t-75 29q-42 0 -75.5 -23t-81.5 -84zM333 371q44 61 88 88.5t97 27.5q67 0 108 -41.5
t41 -109.5t-41 -111t-107 -43q-100 0 -186 116q-47 -62 -89.5 -89t-94.5 -27q-67 0 -108 42.5t-41 110.5t41 110t108 42q98 0 184 -116z" />
    <glyph glyph-name="integral" unicode="&#x222b;" 
d="M411 618h-46q1 10 1 22q0 46 -9 63t-35 17q-44 0 -45 -70v-21v-31v-691v-35q0 -122 -91 -122q-49 0 -72 33.5t-25 110.5h48v-8v-28q0 -77 47 -77q25 0 36 18t11 61v33v685v42q1 68 22 99t68 31q45 0 64.5 -26.5t25.5 -94.5v-11z" />
    <glyph glyph-name="approxequal" unicode="&#x2248;" 
d="M462 342l31 -25q-35 -62 -65.5 -89.5t-65.5 -27.5q-27 0 -115 39q-58 27 -76 33.5t-33 6.5q-26 0 -49 -20.5t-53 -71.5l-30 26q37 61 66.5 86.5t63.5 25.5q20 0 43 -8t85 -36q77 -36 95 -36q52 0 103 97zM462 507l31 -25q-35 -62 -65.5 -89.5t-65.5 -27.5q-28 0 -115 40
q-86 39 -109 39q-26 0 -48.5 -20.5t-53.5 -71.5l-30 26q37 61 66.5 86.5t63.5 25.5q20 0 43 -8t85 -36q80 -36 95 -36q52 0 103 97z" />
    <glyph glyph-name="notequal" unicode="&#x2260;" 
d="M276 436l60 121l44 -15l-53 -106h166v-45h-188l-54 -110h242v-46h-265l-68 -136l-45 15l61 122h-169v45h192l54 109h-247v46h270z" />
    <glyph glyph-name="lessequal" unicode="&#x2264;" 
d="M489 97v-52h-478v52h478zM489 589v-50l-419 -180l419 -186v-50l-478 210v51z" />
    <glyph glyph-name="greaterequal" unicode="&#x2265;" 
d="M489 97v-52h-478v52h478zM11 123v50l418 180l-418 186v50l478 -210v-51z" />
    <glyph glyph-name="lozenge" unicode="&#x25ca;" horiz-adv-x="666" 
d="M332 610l-195 -276l195 -274l197 274zM332 681l252 -347l-252 -348l-250 348z" />
    <glyph glyph-name="apple" unicode="&#xf8ff;" horiz-adv-x="782" 
d="M677 456q-44 -33 -62.5 -65t-18.5 -74q0 -50 26.5 -89.5t73.5 -59.5q-38 -92 -82.5 -143t-86.5 -51q-20 0 -41 9l-41 17q-10 2 -32 2q-40 0 -52 -4l-43 -17q-20 -9 -38 -9q-57 0 -110 81q-84 124 -84 253q0 97 52 158t135 61q34 0 77 -17q34 -13 47 -13q14 0 44 10
q41 15 54.5 18.5t36.5 3.5q93 0 145 -71zM534 691v-10q0 -66 -44.5 -114.5t-104.5 -48.5q1 72 41 118t108 55z" />
    <glyph glyph-name="register" 
d="M198 641v-65h50q56 -1 56 32t-52 33h-54zM167 666h91q76 0 76 -56q0 -25 -25 -44l6 -10l10 -13q4 -9 6 -30l1 -14l1 -10l1 -7q0 -3 2 -9q0 -2 2 -6h-30q-5 10 -6 34q-1 32 -10.5 40.5t-43.5 8.5h-50v-83h-31v199zM250 725q-67 0 -114 -46.5t-47 -113.5q0 -66 47 -113
t114 -47q66 0 113 47t47 113q0 67 -47 113.5t-113 46.5zM250 754q79 0 134.5 -55.5t55.5 -133.5t-55.5 -133t-134.5 -55t-135 55t-56 133t56 133.5t135 55.5z" />
    <glyph glyph-name="sumnation" horiz-adv-x="666" 
d="M594 750v-219h-42l-6 179h-463l257 -439l-260 -481h477l3 178h43v-218h-579v44l259 479l-259 434v43h570z" />
    <glyph glyph-name="quotesinglebase" horiz-adv-x="250" 
d="M160 80l-125 -203l-40 23l111 210z" />
    </font>
</defs>
</svg>
